# xmcd CD database file
#
# Track frame offsets:
#	150
#	22426
#	38694
#	59942
#	82616
#	102917
#	128052
#	148017
#	167153
#	189190
#	213092
#	234587
#	256879
#	278583
#	301665
#	324137
#
# Disc length: 4630 seconds
#
# Revision: 0
# Processed by: cddbd v1.5.1PL0 Copyright (c) Steve Scherf et al.
# Submitted via: CDex 1.51
#
DISCID=d1121410
DTITLE=salseros de coyuca 2 - lo mejor de la salsa
DYEAR=1900
DGENRE=Salsa
TTITLE0=lluvia
TTITLE1=como la quiero,cuanto la extraño
TTITLE2=mia
TTITLE3=tú con él
TTITLE4=vestida de blanco
TTITLE5=hazme olvidarla
TTITLE6=así fué
TTITLE7=sobredosis
TTITLE8=todo empezó
TTITLE9=ven devórame otra vez
TTITLE10=la carta
TTITLE11=tú me vuelves loco
TTITLE12=desnúdate mujer
TTITLE13=fué su primera vez
TTITLE14=tú me quemas
TTITLE15=que locura enamorarme de tí
EXTD=
EXTT0=
EXTT1=
EXTT2=
EXTT3=
EXTT4=
EXTT5=
EXTT6=
EXTT7=
EXTT8=
EXTT9=
EXTT10=
EXTT11=
EXTT12=
EXTT13=
EXTT14=
EXTT15=
PLAYORDER=
